<svg height="35" viewBox="0 0 209 35" width="209" xmlns="http://www.w3.org/2000/svg" xmlns:xlink="http://www.w3.org/1999/xlink"><linearGradient id="a" x1="6.856507%" x2="89.802408%" y1="26.899693%" y2="71.211652%"><stop offset="0" stop-color="#73cff2"/><stop offset=".5" stop-color="#22a6f9"/><stop offset="1" stop-color="#995de3"/></linearGradient><g fill="none" fill-rule="evenodd" transform="translate(0 -.000031)"><path d="m.9473284 2.79892707h17.0088439c.5167225 0 .9473273-.43060414.9473273-.94732777v-.90427145c0-.51672367-.4306048-.94732785-.9473273-.94732785h-17.0088439c-.51672472 0-.9473284.43060418-.9473284.94732785v.90426811c0 .51672697.43060368.94733111.9473284.94733111z" fill="#021768" transform="translate(11.497895 31.347939)"/><path d="m38.8404558 28.290659h-35.78316919c-1.67935437 0-3.05728661-1.3779298-3.05728661-3.057286v-22.17608683c0-1.6793541 1.37793224-3.05728617 3.05728661-3.05728617h35.78316919c1.6793588 0 3.0572888 1.37793207 3.0572888 3.05728617v22.17608683c.0430545 1.6793562-1.3348756 3.057286-3.0572888 3.057286z" fill="#021768"/><path d="m38.8409104 10.0330491v-5.72702856c0-.68896602-.5597876-1.20568995-1.2056938-1.20568995h-9.3440978-1.0334503-22.95117654c-.68896606 0-1.20569002.55978443-1.20569002 1.20568995v5.68396886c2.06689742.3014226 3.61707098 2.0238377 3.61707098 4.1768558 0 2.1099591-1.59323403 3.8754338-3.61707098 4.1768558v5.6839696c0 .6889647.55978447 1.2056918 1.20569002 1.2056918h22.95117654 1.0334503 9.3440978c.6889655 0 1.2056938-.5597868 1.2056938-1.2056918v-5.7700904c-1.8946572-.4306037-3.2725882-2.109959-3.2725882-4.090735 0-2.0668987 1.4209903-3.7031923 3.2725882-4.1337961z" fill="url(#a)"/><g fill="#fff"><path d="m28.290709 3.057274h2.109961v3.444829h-2.109961z"/><path d="m28.290709 9.301036h2.109961v3.444829h-2.109961z"/><path d="m28.290709 15.501739h2.109961v3.444829h-2.109961z"/><path d="m28.290709 21.745459h2.109961v3.444828h-2.109961z"/></g><g fill="#070044"><path d="m60.2846125 7.32027435v12.53056425h5.8992712v2.9281054h-8.913498v-15.45866965z"/><path d="m76.9484169 21.4010084c-1.1195723 1.1195702-2.4975035 1.679353-4.1337997 1.679353-1.6362959 0-3.0142271-.5597862-4.1337999-1.6793544-1.1195727-1.1195689-1.6793525-2.4975014-1.6793525-4.1337946 0-1.6362936.5597864-3.0142253 1.6793525-4.1337942 1.1195728-1.1195687 2.497504-1.6793548 4.1337999-1.6793548 1.6362962 0 3.0142274.5597844 4.1337997 1.6793548 1.119573 1.1195689 1.6793526 2.4975006 1.6793526 4.1337942 0 1.5932341-.5597796 2.9711659-1.6793526 4.133796zm-6.2854917-1.9807659c.5597862.5597845 1.2918113.8612071 2.1530188.8612071.8612077 0 1.5501762-.3014226 2.1530189-.8612071.6028426-.5597845.8612075-1.291811.8612075-2.1960783 0-.9042669-.3014212-1.5932337-.8612075-2.1960779-.5597861-.6028442-1.2918112-.8612074-2.1530189-.8612074-.8612075 0-1.5501762.3014229-2.1530188.8612074-.5597862.6028458-.8181445 1.3348707-.8181445 2.1960779 0 .8612075.2583649 1.5932339.8181445 2.1960783z"/><path d="m87.757103 11.7124227v2.7128026h-3.530951v4.5643975c0 .3875441.086119.6459055.3014213.8181475.2153018.1722421.4736668.2583614.8181449.3014232.3875408.0430592.8181449 0 1.3779312 0v2.5836195c-1.937718.2153013-3.315649.0430601-4.0907375-.5597862-.8181447-.5597836-1.2056922-1.6362934-1.2056922-3.1434057v-4.5213361h-1.9377177v-2.7128026h1.9377177v-3.10034629h2.8419886v3.10034629h3.4878947z"/><path d="m94.6045227 11.7124227v2.7128026h-2.4975068v4.5643975c0 .3875441.0861198.6459055.3014219.8181475.2153024.1722421.4736674.2583614.8181456.3014232.3875416.0430592.8181461 0 1.3779393 0v2.5836195c-1.937726.2153013-3.3156589.0430601-4.0907481-.5597862-.8181456-.5597836-1.2056935-1.6362934-1.2056935-3.1434057v-4.5213361h-1.9377198v-2.7128026h1.9377198v-3.10034629h2.8419917v3.10034629h2.4544499z"/><path d="m106.962195 18.3867915h-8.3106432c.3875402 1.3779321 1.4209922 2.0668978 3.1003412 2.0668978 1.076509 0 1.894652-.3875444 2.454438-1.1195692l2.282198 1.3348709c-1.076508 1.5932325-2.669739 2.3683206-4.822755 2.3683206-1.8085319 0-3.2725869-.5597864-4.3921514-1.6362937-1.119571-1.1195692-1.6362935-2.4975013-1.6362935-4.1768568 0-1.6362939.5597855-3.014226 1.6362935-4.1337952 1.0765082-1.119569 2.4544372-1.6793552 4.1768494-1.6793552 1.636295 0 2.971167.5597846 4.004612 1.6793552 1.076508 1.1195692 1.593237 2.4975013 1.593237 4.1337952.04305.3444826-.000013.7320269-.086126 1.1626304zm-8.3528086-2.1961005h5.6409056c-.172239-.7320267-.473667-1.2918113-.990389-1.636294-.473666-.387544-1.076508-.5597845-1.765476-.5597845-.775087 0-1.377929.2153018-1.8946518.6028459-.4736662.3444827-.8181501.9042672-.9903888 1.5932326z"/><path d="m111.913765 11.7124249v1.8946566c.258365-.688965.688968-1.2056898 1.291811-1.5932337.602843-.3444826 1.291811-.5597844 2.066893-.5597844v3.1864676c-.861208-.1291807-1.636289.0430597-2.325258.5167246-.688968.4736632-1.033446 1.2056899-1.033446 2.2821988v5.2533652h-2.841988v-10.9803947z"/><path d="m134.390381 7.32027435h6.114575c2.109954 0 3.875432.7320267 5.296418 2.2391398 1.420986 1.46405335 2.153017 3.31564895 2.153017 5.46866775 0 2.196078-.732031 4.0046141-2.153017 5.468668-1.420986 1.464052-3.186464 2.2391395-5.296418 2.2391395h-6.114575zm3.015887 12.53056335h3.10035c1.334873 0 2.411382-.4306039 3.272589-1.3348708.818144-.9042669 1.248747-2.0668972 1.248747-3.4878895 0-1.4209919-.430603-2.5836222-1.248747-3.4448297-.818144-.9042671-1.937716-1.3348709-3.272589-1.3348709h-3.10035z"/><path d="m151.400397 10.4206066c-.473668 0-.861209-.1722422-1.205688-.51672478-.344478-.34448258-.51673-.73202675-.51673-1.20569015 0-.47366331.172239-.86120737.51673-1.2487505.344479-.34448266.732033-.5167248 1.205688-.5167248.473668 0 .904272.17224133 1.248751.5167248.344478.34448262.51673.77508719.51673 1.2487505 0 .4736634-.172239.86120757-.51673 1.20569015-.387542.34448258-.775083.51672478-1.248751.51672478zm1.420889 12.3152542h-2.841993v-11.0234556h2.841993z"/><path d="m157.944138 14.8558426c0 .4736633.688969.8612074 2.023842 1.20569.473666.0861213.90427.2153021 1.291811.3444829.38754.1291808.775081.3444826 1.162635.6028459.38754.2583612.688968.6028458.90427 1.0334494.215301.4306042.344477.9042676.344477 1.464054 0 1.1195687-.430604 2.0238376-1.291811 2.6266818-.861206.6028462-1.894653.9042669-3.1434.9042669-2.282193 0-3.789306-.8612071-4.650513-2.6266818l2.454445-1.3779323c.344478.9473287 1.076509 1.4209921 2.153018 1.4209921 1.033446 0 1.507112-.3014228 1.507112-.9473288 0-.4736633-.688968-.8612071-2.023841-1.2056903-.51673-.1291808-.947333-.2583616-1.291811-.3875438-.344478-.1291808-.732031-.3444826-1.162635-.6028462-.430603-.2583612-.732031-.6028455-.947333-.9903882-.215301-.3875438-.301427-.8612075-.301427-1.4209918 0-1.0765096.38754-1.9377172 1.205684-2.5405631.818144-.6459056 1.80854-.9473286 3.014225-.9473286.90427 0 1.722414.2153019 2.454445.602846.732031.387544 1.334873.9903883 1.722414 1.722415l-2.411382 1.3348709c-.344478-.7320266-.947333-1.119569-1.765477-1.119569-.387541 0-.688968.0861212-.90427.2583616-.215302.1722437-.344478.3875458-.344478.6459074z"/><path d="m171.984352 11.4110107c1.46405 0 2.755861.5597845 3.789307 1.679355 1.076509 1.119569 1.593239 2.4975008 1.593239 4.1337945 0 1.6362936-.51673 3.0142259-1.593239 4.1337953-1.033446 1.1195684-2.282194 1.6793541-3.789307 1.6793541-1.550176 0-2.712798-.5167228-3.574006-1.5932332v5.727028h-2.841987v-15.4586707h2.841987v1.2918109c.861195-1.0334494 2.02383-1.5932339 3.574006-1.5932339zm-2.71147 8.0953165c.55978.5597846 1.291811.8612072 2.196081.8612072.904271 0 1.593239-.3014226 2.196082-.8612072.602842-.6028459.861207-1.334871.861207-2.2391398 0-.9042687-.301428-1.6362937-.861207-2.2391396-.55978-.6028459-1.291811-.8612075-2.196082-.8612075-.90427 0-1.593238.3014229-2.196081.8612075-.559779.5597845-.861207 1.3348709-.861207 2.2391396 0 .9042688.301428 1.6362957.861207 2.2391398z"/><path d="m182.231155 22.7358932h-2.841995v-16.06151576h2.841995z"/><path d="m193.212574 13.047297v-1.2918112h2.841991v11.0234565h-2.841991v-1.2918114c-.861208 1.0765092-2.066896 1.5932324-3.574011 1.5932324-1.464052 0-2.712802-.559786-3.789312-1.6793552-1.033448-1.1195692-1.550179-2.4975014-1.550179-4.1337952s.516731-2.9711661 1.550179-4.1337948c1.07651-1.1195691 2.32526-1.6793552 3.789312-1.6793552 1.507115-.0430597 2.712803.5167248 3.574011 1.5932341zm-5.252804 6.4590695c.55978.5597846 1.291813.8612072 2.196084.8612072.904272 0 1.593242-.3014226 2.196086-.8612072.602843-.602846.861208-1.3348711.861208-2.23914 0-.9042688-.301428-1.6362938-.861208-2.2391398-.559781-.6028459-1.291814-.8612075-2.196086-.8612075-.904271 0-1.593241.3014229-2.196084.8612075-.559781.5597845-.861209 1.334871-.861209 2.2391398 0 .9042689.301428 1.6362959.861209 2.23914z"/><path d="m208.370255 11.71241v10.7650894c0 1.6793554-.473667 2.9711663-1.420986 3.9184933-.947332.947327-2.196078 1.4209934-3.789301 1.4209934-.990382 0-1.894651-.172242-2.79892-.5597864-.861206-.3875435-1.636286-.861207-2.282191-1.4640529l1.550174-2.0668988c.559779.4736635 1.076507.8181474 1.550174 1.0765094.473666.258361 1.033444.3444839 1.636286.3444839.77508 0 1.377935-.2153015 1.851588-.6028459.473665-.3875435.688967-.9903894.688967-1.808534v-1.636292c-.818143.775086-1.808538 1.1626285-3.014221 1.1626285-1.248746 0-2.239141-.3875434-2.971158-1.2056899-.732031-.8181474-1.119571-1.8946569-1.119571-3.1864678v-6.1576302h2.971158v5.7270282c0 .6459054.172239 1.1626304.559779 1.5501729.38754.387542.861206.6028454 1.464048.6028454.602841 0 1.119571-.2153015 1.50711-.6028454.387541-.387544.559779-.9042675.559779-1.5501729v-5.7270282z"/><path d="m126.812653 11.71241v10.7650894c0 1.6793554-.473667 2.9711663-1.420988 3.9184933-.947333.947327-2.196081 1.4209934-3.789307 1.4209934-.990383 0-1.894653-.172242-2.798924-.5597864-.861207-.3875435-1.636288-.861207-2.282194-1.4640529l1.550176-2.0668988c.55978.4736635 1.076509.8181474 1.550176 1.0765094.473667.258361 1.033446.3444839 1.636289.3444839.775081 0 1.377937-.2153015 1.85159-.6028459.473667-.3875435.688969-.9903894.688969-1.808534v-1.636292c-.818145.775086-1.808541 1.1626285-3.014226 1.1626285-1.248748 0-2.239144-.3875434-2.971163-1.2056899-.732031-.8181474-1.119572-1.8946569-1.119572-3.1864678v-6.1576302h2.971163v5.7270282c0 .6459054.172239 1.1626304.559779 1.5501729.387541.387542.861208.6028454 1.46405.6028454.602843 0 1.119573-.2153015 1.507113-.6028454.387541-.387544.559779-.9042675.559779-1.5501729v-5.7270282z"/></g></g></svg>