<svg height="48" viewBox="0 0 144 48" width="144" xmlns="http://www.w3.org/2000/svg" xmlns:xlink="http://www.w3.org/1999/xlink"><linearGradient id="a" x1="1.193243" x2=".478409" y1=".16045" y2=".511467"><stop offset=".2354" stop-color="#e16562"/><stop offset=".5558" stop-color="#f0523b"/><stop offset="1" stop-color="#cb2a28"/></linearGradient><linearGradient id="b" x1="2.512086" x2=".066532" y1=".15813" y2=".571918"><stop offset="0" stop-color="#e16562"/><stop offset=".5558" stop-color="#f0523b"/><stop offset="1" stop-color="#cb2a28"/></linearGradient><path d="m17.3184 9.35209c-1.1194-.64416-2.1331-1.23552-3.1574-1.7952-.1268-.07391-.3802-.04224-.5175.03168-3.4003 1.94304-6.79006 3.90723-10.16926 5.88193-.1584.095-.29568.3485-.29568.528-.01056 6.4627-.01056 12.9254-.02112 19.3882 0 .3484.17952.4857.43296.6336 6.29376 3.6326 12.5981 7.2758 18.8918 10.9084.4119.2324.8132.4752 1.2884.7498-1.0138.5914-1.9642 1.1616-2.9357 1.679-.1373.074-.433-.0316-.6019-.1267-5.0583-2.904-10.1165-5.808-15.1642-8.7225-1.55232-.8976-3.09408-1.7952-4.65696-2.6717-.29568-.169-.41184-.3485-.41184-.697.01056-7.6243.01056-15.2486 0-22.8624 0-.3696.12672-.5597.44352-.7286 4.4352-2.54499 8.85984-5.08995 13.28448-7.64547.2746-.1584.4752-.17952.7603-.02112 5.8819 3.41088 11.7639 6.81119 17.6458 10.21149.0739.0423.1478.0951.2851.1901-1.0666.6125-2.0909 1.225-3.1258 1.7847-.1267.0633-.4012-.0634-.5702-.1584-2.5133-1.4362-5.0371-2.8724-7.5293-4.3402-.3801-.2218-.6547-.2429-1.0454-.0106-3.2631 1.9114-6.5261 3.7911-9.8103 5.6708-.3379.19-.45404.3907-.45404.7814.01056 3.8122.01056 7.6243 0 11.4365 0 .3696.12674.5597.43294.7392 3.3053 1.8902 6.6106 3.8016 9.8947 5.7235.3168.1795.5386.2006.8554.0106 3.3158-1.922 6.6317-3.8228 9.9475-5.7447.1901-.1056.4119-.3801.4119-.5702.0316-2.2176.0211-4.4247.0105-6.6423 0-.0633-.0211-.1372-.0528-.2745-.2323.1161-.4224.2112-.6125.3168-3.2419 1.8691-6.4838 3.7382-9.7152 5.6285-.3168.1795-.5491.1795-.8553 0-2.1648-1.2672-4.3402-2.5239-6.5261-3.7594-.3168-.1795-.4224-.3907-.4224-.7392.0211-1.0666.0106-2.1437.0106-3.3053.2006.1056.3484.1795.4857.2535 2.1437 1.2355 4.2979 2.471 6.4311 3.7171.3273.1901.5702.1901.9081 0 4.3085-2.5027 8.6381-4.9949 12.9571-7.4871.1796-.1056.3591-.19.6442-.3379v.697c0 4.5091-.0106 9.0288.0106 13.5379 0 .4646-.1268.7181-.5386.9504-3.2208 1.8374-6.4205 3.696-9.6307 5.5546-.1584.095-.3274.19-.5914.3484.697.4013 1.3623.697 1.9114 1.13 1.0243.8236 1.8797.718 2.9885.0316 2.8828-1.7846 5.8502-3.4214 8.7964-5.0899.4119-.2323.5492-.4963.5492-.9609-.0106-6.3044-.0106-12.6087 0-18.913 0-.4963-.1901-.7498-.5914-.9821-6.5366-3.73823-13.0733-7.49759-19.5994-11.25695-.1372-.07392-.2745-.1584-.4857-.28512 1.0454-.60192 2.0275-1.182716 3.0307-1.7212756.1162-.06336.359.06336.5069.1583996 4.6569 2.682236 9.3033 5.375036 13.9603 8.067836 1.9114 1.1088 3.8227 2.21761 5.7552 3.31581.3274.1901.4541.4013.4541.792-.0106 7.5821-.0106 15.1748 0 22.7568 0 .3908-.1267.602-.4541.7815-4.4035 2.5344-8.7965 5.0688-13.1789 7.6243-.2957.169-.5069.169-.8025 0-6.6-3.8122-13.2-7.6243-19.8106-11.4154-.30624-.1795-.43296-.3696-.43296-.7392.01056-5.0899.01056-10.1904 0-15.2803 0-.3696.12672-.5597.43296-.7392 3.263-1.8691 6.5155-3.7488 9.7786-5.61791.1584-.11616.3168-.22175.5702-.3696z" fill="url(#a)" fill-rule="evenodd" transform="translate(.04224 .088546)"/><path d="m6.27264 5.42784v-3.62208l-3.13632-1.80576-3.13632 1.80576v3.62208l3.03072 1.80576z" fill="url(#b)" fill-rule="evenodd" transform="translate(119.5392 9.6624)"/><g fill="#0e2240"><path d="m17.0122 5.94528c-1.4573-1.39392-3.6327-2.17536-5.5229-2.17536-4.65698 0-7.48706 3.5376-7.48706 8.01508 0 3.5692 2.08032 7.2652 7.48706 7.2652 1.7107 0 3.1997-.3696 4.9104-1.7424v-3.8544h-5.5546v-3.66428h9.3034v9.15548c-2.1437 2.45-4.8471 3.9072-8.6592 3.9072-8.1629 0-11.4893-5.375-11.4893-11.088 0-6.1142 3.82272-11.7638 11.4893-11.7638 2.9145 0 5.8397 1.11936 8.0678 3.3264z" fill-rule="evenodd" transform="translate(48.91392 12.85152)"/><path d="m3.51648.40128.27456 1.77408c1.18272-1.89024 2.76672-2.17536 4.31904-2.17536 1.584 0 3.10462.62304 3.93892 1.45728l-1.7002 3.29472c-.77088-.65472-1.48896-.99264-2.73504-.99264-1.98528 0-3.82272 1.056-3.82272 3.88608v8.06786h-3.79104v-15.31202z" fill-rule="evenodd" transform="translate(72.1248 19.514881)"/><path d="m15.935 7.98336c0 4.40354-3.0096 7.98334-7.98332 7.98334-4.97376 0-7.95168-3.5693-7.95168-7.98334 0-4.3824 3.04128-7.98336 7.92-7.98336 4.8787 0 8.015 3.61152 8.015 7.98336zm-12.1334 0c0 2.33374 1.39392 4.49854 4.16064 4.49854 2.76676 0 4.16066-2.1753 4.16066-4.49854 0-2.30208-1.6157-4.53024-4.16066-4.53024-2.73504 0-4.16064 2.23872-4.16064 4.53024z" transform="translate(84.88128 19.599361)"/><path d="m17.16 0-6.5155 15.3965h-4.0973l-6.5472-15.3965h4.12896l2.112 5.05824 2.35488 6.46276 2.33376-6.3994 2.112-5.1216z" fill-rule="evenodd" transform="translate(101.81952 19.884481)"/><path d="m0 0v15.3648h3.79104v-15.3648z" fill-rule="evenodd" transform="translate(120.816956 19.8528)"/><path d="m12.9782.3804h3.6327v15.3014h-3.5693l-.1901-2.2387c-.8659 1.8058-3.26302 2.6717-4.96318 2.7034-4.53024.0317-7.88832-2.7667-7.88832-8.13122 0-5.28 3.50592-8.0361604 7.98336-8.01504042 2.04864 0 4.00224.96096042 4.87874 2.48160042zm-9.18716 7.63488c0 2.91452 2.01696 4.65692 4.53024 4.65692 5.95582 0 5.95582-9.2822 0-9.2822-2.51328 0-4.53024 1.71072-4.53024 4.62528z" transform="translate(127.17409 19.53576)"/></g></svg>